Coordinates
version=1
nRows=43
nColumns=12
inDegrees=yes

Units are S.I. units (second, meters, Newtons, ...)
Angles are in degrees

endheader
time	SC_y	SC_z	SC_x	AC_y	AC_z	AC_x	GH_y	GH_z	GH_yy	EL_x	PS_y
       0.0              -31.22          27.89          21.02          45.44         -2.486          14.17         -64.83           24.5         -42.65          112.8          157.6
   0.02888              -31.22           27.9          21.02          45.44         -2.487          14.16         -64.82          24.51         -42.67          112.8          157.6
   0.05777              -31.22           27.9          21.02          45.43         -2.489          14.16          -64.8          24.51         -42.69          112.8          157.6
   0.08665              -31.21           27.9          21.02          45.43          -2.49          14.15         -64.79          24.52         -42.71          112.8          157.6
    0.1155              -31.21           27.9          21.02          45.43         -2.491          14.15         -64.77          24.53         -42.73          112.8          157.6
    0.1444              -31.21           27.9          21.02          45.43         -2.492          14.14         -64.76          24.54         -42.75          112.7          157.5
    0.1733              -31.21           27.9          21.03          45.42         -2.494          14.14         -64.74          24.56         -42.78          112.7          157.5
    0.2022               -31.2           27.9          21.03          45.42         -2.495          14.13         -64.72          24.57          -42.8          112.7          157.5
    0.2311               -31.2           27.9          21.03          45.42         -2.497          14.12          -64.7          24.58         -42.83          112.7          157.4
      0.26               -31.2           27.9          21.03          45.41         -2.499          14.12         -64.68          24.59         -42.86          112.7          157.4
    0.2888               -31.2           27.9          21.03          45.41         -2.501          14.11         -64.66          24.61         -42.89          112.7          157.4
    0.3177              -31.19           27.9          21.03          45.41         -2.503           14.1         -64.63          24.62         -42.93          112.7          157.3
    0.3466              -31.19           27.9          21.04           45.4         -2.505          14.09         -64.61          24.64         -42.96          112.7          157.3
    0.3755              -31.19           27.9          21.04           45.4         -2.508          14.08         -64.58          24.66          -43.0          112.7          157.2
    0.4044              -31.18           27.9          21.04          45.39          -2.51          14.07         -64.55          24.68         -43.05          112.7          157.2
    0.4333              -31.18           27.9          21.04          45.39         -2.513          14.06         -64.51           24.7          -43.1          112.7          157.1
    0.4621              -31.17           27.9          21.05          45.38         -2.516          14.05         -64.48          24.73         -43.15          112.7          157.1
     0.491              -31.17           27.9          21.05          45.37          -2.52          14.03         -64.44          24.75          -43.2          112.6          157.0
    0.5199              -31.16           27.9          21.05          45.37         -2.523          14.02         -64.39          24.78         -43.27          112.6          156.9
    0.5488              -31.15           27.9          21.06          45.36         -2.527           14.0         -64.34          24.81         -43.33          112.6          156.9
    0.5777              -31.15          27.91          21.06          45.35         -2.532          13.98         -64.29          24.84         -43.41          112.6          156.8
    0.6066              -31.14          27.91          21.07          45.34         -2.537          13.97         -64.23          24.88         -43.49          112.6          156.7
    0.6354              -31.13          27.91          21.07          45.33         -2.542          13.94         -64.17          24.92         -43.58          112.6          156.6
    0.6643              -31.12          27.91          21.08          45.32         -2.548          13.92          -64.1          24.97         -43.68          112.5          156.5
    0.6932              -31.11          27.91          21.08          45.31         -2.555          13.89         -64.02          25.02         -43.79          112.5          156.3
    0.7221               -31.1          27.91          21.09          45.29         -2.562          13.86         -63.93          25.07         -43.91          112.5          156.2
     0.751              -31.09          27.91           21.1          45.28          -2.57          13.83         -63.83          25.14         -44.05          112.5          156.1
    0.7799              -31.07          27.92          21.11          45.26          -2.58          13.79         -63.72          25.21         -44.21          112.4          155.9
    0.8087              -31.06          27.92          21.12          45.24          -2.59          13.75          -63.6          25.29         -44.38          112.4          155.7
    0.8376              -31.04          27.92          21.13          45.22         -2.602           13.7         -63.46          25.38         -44.58          112.4          155.4
    0.8665              -31.01          27.92          21.14          45.19         -2.616          13.65         -63.29          25.48         -44.81          112.3          155.2
    0.8954              -30.99          27.93          21.16          45.16         -2.632          13.58         -63.11           25.6         -45.07          112.2          154.9
    0.9243              -30.96          27.93          21.18          45.12          -2.65          13.51         -62.89          25.74         -45.37          112.2          154.5
    0.9532              -30.93          27.94           21.2          45.08         -2.671          13.43         -62.64           25.9         -45.72          112.1          154.1
     0.982              -30.89          27.94          21.22          45.04         -2.695          13.33         -62.35          26.09         -46.13          112.0          153.7
     1.011              -30.84          27.95          21.25          44.98         -2.724          13.21         -62.01          26.31         -46.62          111.9          153.1
      1.04              -30.79          27.96          21.28          44.92         -2.759          13.07          -61.6          26.57         -47.19          111.8          152.5
     1.069              -30.72          27.97          21.32          44.84           -2.8          12.91         -61.11          26.89         -47.88          111.6          151.7
     1.098              -30.65          27.98          21.37          44.74          -2.85          12.71         -60.51          27.27         -48.71          111.5          150.7
     1.126              -30.55          27.99          21.43          44.62         -2.911          12.46         -59.79          27.73         -49.73          111.2          149.6
     1.155              -30.43          28.01           21.5          44.48         -2.987          12.16          -58.9          28.31         -50.99          111.0          148.1
     1.184              -30.28          28.03          21.59           44.3         -3.081          11.78         -57.78          29.02         -52.56          110.6          146.3
     1.213               -30.1          28.06          21.71          44.07         -3.199           11.3         -56.37          29.93         -54.53          110.2          144.1
